<svg id="Capa_1" data-name="Capa 1" xmlns="http://www.w3.org/2000/svg" width="60" height="60" viewBox="0 0 60 60"><defs><style>.cls-1{fill:#3d3d44;}</style></defs><title>skype-logo</title><path id="Skype" class="cls-1" d="M57.5,34.34A28.14,28.14,0,0,0,57.84,30,27.84,27.84,0,0,0,30,2.16a28.37,28.37,0,0,0-4.35.34A16.83,16.83,0,0,0,2.5,25.66,28.24,28.24,0,0,0,2.16,30,27.83,27.83,0,0,0,30,57.83a28.24,28.24,0,0,0,4.34-.33A16.83,16.83,0,0,0,57.5,34.34ZM43.22,42.66a11.52,11.52,0,0,1-5.17,4,20.52,20.52,0,0,1-8,1.43,19.31,19.31,0,0,1-9.19-2,12,12,0,0,1-4.19-3.77A8.22,8.22,0,0,1,15,37.74a3,3,0,0,1,1-2.28,3.48,3.48,0,0,1,2.52-1,3.14,3.14,0,0,1,2.11.74,5.52,5.52,0,0,1,1.45,2.15,13.57,13.57,0,0,0,1.53,2.74,5.94,5.94,0,0,0,2.29,1.8,9.06,9.06,0,0,0,3.9.71,9.34,9.34,0,0,0,5.4-1.43,4.16,4.16,0,0,0,2-3.53A3.5,3.5,0,0,0,36.16,35a7.31,7.31,0,0,0-2.88-1.62q-1.8-.57-4.8-1.2a37.13,37.13,0,0,1-6.77-2.06,10.91,10.91,0,0,1-4.36-3.23,8,8,0,0,1-1.62-5.11,8.34,8.34,0,0,1,1.71-5.16,10.62,10.62,0,0,1,4.93-3.46,21.53,21.53,0,0,1,7.54-1.2,20.09,20.09,0,0,1,6,.79,13.26,13.26,0,0,1,4.22,2.13,9.22,9.22,0,0,1,2.45,2.8,6.11,6.11,0,0,1,.78,2.87,3.32,3.32,0,0,1-1,2.35,3.28,3.28,0,0,1-2.48,1,3,3,0,0,1-2.06-.63,8.27,8.27,0,0,1-1.49-2,8.83,8.83,0,0,0-2.42-3,7.51,7.51,0,0,0-4.51-1.07,8.35,8.35,0,0,0-4.66,1.17A3.33,3.33,0,0,0,23,21.12a2.7,2.7,0,0,0,.59,1.72,4.94,4.94,0,0,0,1.64,1.27,11.57,11.57,0,0,0,2.14.84c.73.21,1.94.51,3.62.9q3.17.69,5.74,1.52a18.08,18.08,0,0,1,4.39,2,8.51,8.51,0,0,1,2.85,3,9.07,9.07,0,0,1,1,4.5A9.77,9.77,0,0,1,43.22,42.66Z"/></svg>